<svg width="138" height="32" viewBox="0 0 138 32" fill="none" xmlns="http://www.w3.org/2000/svg">
<path d="M75.9664 9.06785H80.6134L72.1089 31.6994H68.7544L54.582 0.0906067H59.2291L70.4342 25.2368L75.9664 9.06785Z" fill="#339CFF"/>
<path d="M89.3543 30.8645C87.9664 30.1016 86.8502 28.9258 86.1607 27.5C85.3875 25.8318 85.0121 24.0068 85.0644 22.1689V18.4876C85.0121 16.6707 85.3877 14.8669 86.1607 13.2219C86.8506 11.804 87.9675 10.6379 89.3543 9.88756C90.9241 9.13528 92.6428 8.74469 94.3835 8.74469C96.1243 8.74469 97.8429 9.13528 99.4128 9.88756C100.8 10.6379 101.916 11.804 102.606 13.2219C103.381 14.8665 103.758 16.6703 103.708 18.4876V22.2193C103.759 24.0431 103.382 25.8534 102.606 27.5049C101.912 28.9219 100.796 30.0901 99.4128 30.8495C97.8444 31.6068 96.1252 32 94.3835 32C92.6419 32 90.9227 31.6068 89.3543 30.8495V30.8645ZM97.9996 26.3382C98.8495 25.3625 99.272 23.9996 99.272 22.2394V18.4925C99.272 16.7323 98.8478 15.3728 97.9996 14.4139C97.0251 13.4903 95.7337 12.9756 94.3911 12.9756C93.0485 12.9756 91.757 13.4903 90.7826 14.4139C89.931 15.3728 89.5069 16.7323 89.5102 18.4925V22.2193C89.5102 23.9795 89.9327 25.3424 90.7826 26.318C91.7511 27.2531 93.0448 27.7757 94.3911 27.7757C95.7373 27.7757 97.031 27.2531 97.9996 26.318V26.3382Z" fill="#339CFF"/>
<path d="M117.051 25.8505C117.022 26.3044 117.148 26.7545 117.408 27.1277C117.529 27.2749 117.684 27.3921 117.858 27.4698C118.033 27.5474 118.223 27.5835 118.414 27.5753H120.506V31.805H117.891C116.206 31.805 114.873 31.302 113.978 30.2358C113.083 29.1696 112.595 27.7213 112.595 25.8102V0H117.041L117.051 25.8505Z" fill="#339CFF"/>
<path d="M133.964 25.8505C133.934 26.3053 134.062 26.7562 134.326 27.1277C134.446 27.2761 134.6 27.394 134.775 27.4717C134.95 27.5495 135.14 27.585 135.332 27.5753H137.424V31.805H134.808C134.081 31.8477 133.353 31.729 132.677 31.4578C132 31.1865 131.392 30.7693 130.896 30.2358C129.975 29.1898 129.513 27.7213 129.513 25.8102V0H133.959L133.964 25.8505Z" fill="#339CFF"/>
<path d="M48.0545 7.13156L52.0779 9.19359L35.7127 26.6049L32.5996 25.3073L33.4797 2.19785H37.7797L36.6884 19.946L48.0545 7.13156Z" fill="#339CFF"/>
<path d="M25.0509 2.19785H29.366L30.1003 25.6995L26.9872 26.9821L10.4561 9.20857L14.7661 7.43827L26.0718 20.3284L25.0509 2.19785Z" fill="#339CFF"/>
<path d="M6.08035 16.335L7.87579 12.0302L25.5536 28.6618L24.251 31.7699L0 31.7345L1.79543 27.4346L18.8948 27.7112L6.08035 16.335Z" fill="#339CFF"/>
<path d="M43.619 27.6458L60.7184 27.4597L62.4887 31.7748L38.2276 31.6741L36.9502 28.5562L54.7185 12.025L56.4888 16.3401L43.619 27.6458Z" fill="#339CFF"/>
</svg>
